<svg xmlns="http://www.w3.org/2000/svg" width="25" height="25.002" viewBox="0 0 25 25.002">
  <defs>
    <style>
      .cls-1 {
        fill: none;
      }

      .cls-2 {
        fill: #acafb3;
      }
    </style>
  </defs>
  <g id="courses" transform="translate(0)">
    <rect id="Rectangle_23" data-name="Rectangle 23" class="cls-1" width="25" height="24.337"/>
    <path id="Path_5" data-name="Path 5" class="cls-2" d="M2.055,17.851a1.242,1.242,0,0,0,.583.76l2.389,1.382v2.752A1.252,1.252,0,0,0,6.28,24H9.032l1.382,2.391a1.254,1.254,0,0,0,1.71.458l2.389-1.38L16.9,26.846a1.254,1.254,0,0,0,1.71-.458L19.993,24h2.752A1.252,1.252,0,0,0,24,22.747V19.995l2.389-1.382a1.25,1.25,0,0,0,.458-1.71l-1.38-2.391,1.382-2.389a1.252,1.252,0,0,0-.458-1.71L24,9.032V6.28a1.252,1.252,0,0,0-1.252-1.252H19.994l-1.38-2.389a1.257,1.257,0,0,0-.76-.583,1.244,1.244,0,0,0-.95.125l-2.392,1.38L12.123,2.18a1.249,1.249,0,0,0-1.71.457L9.032,5.027H6.28A1.252,1.252,0,0,0,5.028,6.279V9.031L2.639,10.414a1.253,1.253,0,0,0-.457,1.71l1.38,2.389L2.181,16.9a1.255,1.255,0,0,0-.125.949Z" transform="translate(-2.013 -2.011)"/>
  </g>
</svg>
