<svg id="Dashboard" xmlns="http://www.w3.org/2000/svg" width="25" height="25" viewBox="0 0 25 25">
  <defs>
    <style>
      .cls-1 {
        fill: #fff;
      }

      .cls-2 {
        fill: none;
      }
    </style>
  </defs>
  <path id="Path_3" data-name="Path 3" class="cls-1" d="M4.352,16.521h8.112a1.352,1.352,0,0,0,1.352-1.352V4.352A1.352,1.352,0,0,0,12.464,3H4.352A1.352,1.352,0,0,0,3,4.352V15.168A1.352,1.352,0,0,0,4.352,16.521ZM3,25.985a1.352,1.352,0,0,0,1.352,1.352h8.112a1.352,1.352,0,0,0,1.352-1.352V20.577a1.352,1.352,0,0,0-1.352-1.352H4.352A1.352,1.352,0,0,0,3,20.577Zm13.521,0a1.352,1.352,0,0,0,1.352,1.352h8.112a1.352,1.352,0,0,0,1.352-1.352V16.521a1.352,1.352,0,0,0-1.352-1.352H17.873a1.352,1.352,0,0,0-1.352,1.352Zm1.352-13.521h8.112a1.352,1.352,0,0,0,1.352-1.352V4.352A1.352,1.352,0,0,0,25.985,3H17.873a1.352,1.352,0,0,0-1.352,1.352v6.76A1.352,1.352,0,0,0,17.873,12.464Z" transform="translate(-3 -2.337)"/>
  <rect id="Rectangle_23" data-name="Rectangle 23" class="cls-2" width="25" height="24.337"/>
</svg>
