<svg xmlns="http://www.w3.org/2000/svg" width="25" height="25" viewBox="0 0 25 25">
  <defs>
    <style>
      .cls-1 {
        fill: none;
      }

      .cls-2 {
        fill: #acafb3;
      }
    </style>
  </defs>
  <g id="reading" transform="translate(0 0.335)">
    <rect id="Rectangle_23" data-name="Rectangle 23" class="cls-1" width="25" height="24.329"/>
    <path id="md-bookmarks" class="cls-2" d="M86.208,64H84.841c.976.371,1.484,1.341,1.484,2.779V86.221c0,1.438-.456,2.428-1.484,2.779h1.367a2.783,2.783,0,0,0,2.786-2.779V66.779A2.783,2.783,0,0,0,86.208,64Zm-3.886.013c-.091-.007-.182-.013-.273-.013H66.779A2.786,2.786,0,0,0,64,66.779V86.221A2.786,2.786,0,0,0,66.779,89H82.055c.091,0,.182-.007.273-.013a2.788,2.788,0,0,0,2.506-2.766V66.779A2.8,2.8,0,0,0,82.322,64.013ZM73.373,76.5l-3.645-2.083L66.083,76.5V66.083h7.29Z" transform="translate(-64 -64.335)"/>
  </g>
</svg>
