<svg id="_3dvr" data-name="3dvr" xmlns="http://www.w3.org/2000/svg" width="25" height="25" viewBox="0 0 25 25">
  <defs>
    <style>
      .cls-1 {
        fill: none;
      }

      .cls-2 {
        fill: #acafb3;
      }
    </style>
  </defs>
  <rect id="Rectangle_23" data-name="Rectangle 23" class="cls-1" width="25" height="25"/>
  <path id="vr-cardboard-solid" class="cls-2" d="M23.75,64H1.25A1.273,1.273,0,0,0,0,65.3V78.249a1.273,1.273,0,0,0,1.25,1.3H7.509a2.5,2.5,0,0,0,2.28-1.528l1.084-2.5A1.813,1.813,0,0,1,12.5,74.363a1.813,1.813,0,0,1,1.628,1.158l1.084,2.5a2.5,2.5,0,0,0,2.28,1.528H23.75a1.273,1.273,0,0,0,1.25-1.3V65.3A1.273,1.273,0,0,0,23.75,64ZM6.25,73.715a2.592,2.592,0,0,1,0-5.181,2.592,2.592,0,0,1,0,5.181Zm12.5,0a2.592,2.592,0,1,1,2.5-2.591A2.546,2.546,0,0,1,18.75,73.715Z" transform="translate(0 -58.995)"/>
</svg>
