<?xml version="1.0" standalone="no"?>
<!DOCTYPE svg PUBLIC "-//W3C//DTD SVG 20010904//EN"
 "http://www.w3.org/TR/2001/REC-SVG-20010904/DTD/svg10.dtd">
<svg version="1.0" xmlns="http://www.w3.org/2000/svg"
 width="976.000000pt" height="976.000000pt" viewBox="0 0 976.000000 976.000000"
 preserveAspectRatio="xMidYMid meet">
<metadata>
Created by potrace 1.14, written by Peter Selinger 2001-2017
</metadata>
<g transform="translate(0.000000,976.000000) scale(0.100000,-0.100000)"
fill="#000000" stroke="none">
<path d="M2635 8577 c-38 -111 -70 -204 -71 -207 0 -3 -3 -12 -7 -20 -3 -8
-15 -44 -27 -80 -12 -36 -26 -74 -30 -85 -14 -36 -44 -120 -46 -130 -1 -5 -32
-95 -69 -200 -36 -104 -77 -221 -90 -260 -13 -38 -44 -128 -70 -200 -26 -71
-48 -137 -50 -145 -2 -8 -15 -46 -30 -85 -14 -38 -28 -81 -31 -94 -3 -13 -9
-31 -13 -40 -5 -9 -21 -52 -35 -96 -15 -44 -30 -87 -33 -95 -4 -8 -7 -17 -8
-20 -4 -19 -38 -119 -45 -135 -5 -11 -14 -38 -21 -60 -7 -22 -16 -45 -20 -50
-5 -6 -10 -22 -13 -37 -2 -14 -9 -36 -16 -47 -6 -12 -8 -21 -4 -21 3 0 -1 -11
-10 -25 -9 -14 -14 -25 -12 -25 3 0 -13 -51 -36 -112 -22 -62 -41 -117 -42
-123 -1 -5 -7 -23 -13 -40 -22 -58 -26 -70 -29 -80 -1 -5 -8 -23 -15 -40 -6
-16 -13 -36 -15 -43 -2 -12 -50 -152 -61 -182 -4 -8 -7 -17 -8 -20 -1 -3 -4
-12 -7 -20 -20 -55 -40 -112 -42 -123 -2 -6 -8 -25 -14 -40 -7 -16 -12 -33
-12 -38 0 -5 -4 -17 -9 -27 -5 -9 -26 -66 -47 -127 -20 -60 -41 -116 -47 -122
-5 -7 -7 -13 -4 -13 3 0 -19 -71 -49 -157 -31 -87 -77 -221 -104 -298 -69
-200 -211 -612 -255 -735 -20 -58 -47 -136 -60 -175 -13 -38 -34 -99 -48 -135
-13 -36 -25 -67 -25 -70 -1 -7 -7 -25 -40 -120 -17 -47 -38 -110 -47 -140 -10
-30 -21 -59 -25 -65 -5 -8 -27 -72 -36 -107 -1 -5 -3 -10 -4 -13 -1 -3 -3 -8
-5 -12 -1 -5 -5 -15 -8 -23 -4 -8 -26 -73 -51 -145 -118 -346 -137 -401 -146
-420 -5 -11 -13 -36 -19 -55 -8 -30 -51 -155 -68 -200 -4 -8 -7 -17 -8 -20 -5
-20 -49 -147 -54 -155 -3 -5 -7 -18 -8 -29 -2 -10 -10 -33 -17 -50 -8 -17 -29
-74 -46 -126 -42 -127 -130 -380 -140 -405 -5 -11 -18 -49 -30 -85 -12 -36
-49 -141 -82 -235 -33 -93 -65 -189 -71 -212 -5 -24 -14 -43 -18 -43 -5 0 -6
-6 -3 -14 3 -8 1 -17 -5 -21 -6 -3 -11 -10 -11 -16 0 -6 315 -8 837 -7 l837 3
13 35 c17 49 74 232 78 250 2 8 10 34 18 57 9 22 13 44 10 47 -4 3 0 6 7 6 7
0 11 3 7 6 -3 4 0 23 7 43 13 36 60 181 61 191 2 13 57 187 65 205 5 11 12 31
15 45 4 14 30 97 58 185 28 88 52 163 53 168 1 4 2 8 3 10 2 1 4 11 6 22 3 11
21 70 40 130 20 61 38 117 40 125 2 8 13 42 24 75 11 33 21 68 21 78 0 9 4 17
8 17 5 0 9 6 9 13 0 20 44 161 53 171 4 4 623 9 1374 10 l1366 1 0 -20 c0 -12
4 -25 9 -30 4 -6 14 -32 21 -60 7 -27 17 -56 23 -62 5 -7 7 -13 3 -13 -3 0 1
-17 8 -37 8 -21 35 -105 61 -188 26 -82 54 -172 63 -200 9 -27 17 -53 18 -57
1 -5 3 -10 4 -13 1 -3 3 -8 4 -12 2 -14 28 -97 40 -128 6 -16 11 -32 12 -35 1
-7 13 -47 69 -225 26 -82 48 -154 49 -160 1 -5 4 -14 7 -20 4 -5 10 -23 14
-40 12 -45 12 -45 15 -47 1 -2 3 -10 5 -18 2 -12 29 -98 59 -195 2 -5 4 -14 6
-20 1 -5 8 -26 16 -45 8 -19 15 -37 15 -40 0 -3 14 -50 31 -105 18 -55 32
-104 32 -110 1 -7 299 -11 868 -13 823 -2 868 -1 864 15 -1 10 -6 27 -10 38
-5 11 -12 31 -16 45 -4 14 -12 34 -16 45 -4 11 -8 23 -9 28 -2 4 -3 8 -5 10
-1 1 -3 9 -5 17 -2 8 -15 47 -29 85 -23 66 -119 342 -222 640 -25 72 -49 139
-54 150 -5 11 -25 67 -44 125 -47 141 -105 311 -113 330 -3 8 -7 18 -8 23 -2
4 -3 8 -5 10 -1 1 -3 9 -5 17 -2 8 -22 67 -45 130 -22 63 -43 126 -46 140 -3
13 -9 29 -13 35 -4 5 -14 30 -21 55 -8 25 -14 47 -15 50 -1 3 -5 12 -8 20 -8
18 -105 297 -152 435 -19 55 -59 172 -90 260 -31 88 -67 194 -81 235 -14 41
-29 84 -34 95 -5 11 -36 101 -70 200 -34 99 -72 209 -85 245 -20 55 -35 100
-40 120 -1 3 -7 18 -13 33 -7 15 -15 40 -18 55 -4 15 -9 32 -13 37 -3 6 -6 15
-8 20 -1 6 -23 69 -48 140 -25 72 -62 177 -81 235 -20 58 -39 114 -44 125 -4
11 -13 36 -20 55 -7 19 -15 44 -20 55 -10 28 -31 88 -34 100 -2 6 -6 17 -9 25
-3 8 -26 74 -50 145 -25 72 -52 150 -61 175 -10 25 -18 50 -19 55 -2 6 -6 16
-10 23 -5 6 -6 12 -2 12 3 0 0 10 -7 23 -7 12 -13 24 -13 27 -2 10 -28 87 -57
169 -17 45 -31 88 -33 95 -1 6 -5 18 -8 26 -4 8 -29 83 -57 165 -28 83 -55
159 -60 170 -4 11 -20 54 -34 95 -13 41 -55 161 -91 265 -37 105 -68 195 -69
200 -2 6 -6 17 -9 25 -14 36 -69 197 -72 212 -2 9 -8 25 -13 35 -6 10 -11 21
-11 25 -2 10 -9 33 -17 56 -31 83 -55 150 -58 162 -3 8 -11 34 -19 57 -9 22
-13 44 -10 47 4 3 0 6 -7 6 -7 0 -11 3 -7 6 3 4 0 19 -9 35 -8 16 -12 29 -8
29 4 0 2 6 -3 13 -9 11 -31 70 -37 100 -2 7 -7 23 -13 37 -11 27 -30 81 -100
285 -24 72 -48 139 -52 150 -11 25 -52 144 -56 159 -1 6 -5 18 -8 26 -27 71
-67 189 -67 198 0 9 -231 12 -962 12 l-963 0 -70 -203z m1050 -1379 c15 -51
46 -148 67 -216 22 -68 41 -129 42 -135 4 -19 77 -250 86 -272 7 -17 13 -39
25 -85 0 -3 10 -34 22 -70 44 -136 115 -363 117 -374 1 -6 7 -24 13 -41 6 -16
26 -77 43 -135 38 -125 86 -279 105 -335 17 -50 86 -274 90 -289 1 -6 5 -18 8
-26 3 -8 24 -76 47 -150 47 -150 92 -295 140 -445 17 -55 33 -107 35 -115 2
-8 13 -44 25 -80 12 -36 24 -73 25 -82 2 -10 13 -44 24 -75 26 -78 51 -160 51
-170 0 -5 -449 -9 -1015 -9 -843 0 -1015 2 -1010 13 5 14 37 121 41 136 1 4 3
9 4 12 1 3 3 8 5 13 1 4 5 14 8 22 4 8 8 24 10 35 1 11 5 25 8 30 4 6 10 24
14 40 5 17 9 32 10 35 15 49 29 96 30 100 1 3 4 12 8 20 8 20 38 118 41 133 2
7 6 19 9 27 10 29 88 279 92 297 2 10 11 38 20 63 9 25 19 56 21 69 3 13 11
39 19 57 8 19 12 34 10 34 -3 0 6 30 19 68 28 78 80 246 78 249 -1 2 5 20 13
40 16 42 117 361 121 380 2 13 42 138 51 163 4 8 5 19 4 24 -1 4 2 13 7 20 8
9 16 33 28 81 1 6 9 30 17 55 16 47 68 216 72 234 1 6 5 18 8 26 10 23 119
373 122 390 1 8 5 22 9 30 10 24 72 222 80 255 8 30 21 45 42 45 6 0 23 -42
39 -92z"/>
<path d="M8130 4880 l0 -3900 815 0 815 0 0 3900 0 3900 -815 0 -815 0 0
-3900z"/>
</g>
</svg>
